<?xml version="1.0" encoding="utf-8"?>
<!-- Generator: Adobe Illustrator 19.2.0, SVG Export Plug-In . SVG Version: 6.00 Build 0)  -->
<svg version="1.1" id="Layer_1" xmlns="http://www.w3.org/2000/svg" xmlns:xlink="http://www.w3.org/1999/xlink" x="0px" y="0px"
	 viewBox="0 0 300 74" style="enable-background:new 0 0 300 74;" xml:space="preserve">
<style type="text/css">
	.st0{fill:#00619E;}
	.st1{clip-path:url(#SVGID_2_);fill:#00619E;}
	.st2{clip-path:url(#SVGID_4_);fill:#00619E;}
	.st3{clip-path:url(#SVGID_6_);fill:#00619E;}
	.st4{clip-path:url(#SVGID_8_);fill:#00619E;}
	.st5{clip-path:url(#SVGID_10_);fill:#00619E;}
	.st6{clip-path:url(#SVGID_12_);fill:#00619E;}
	.st7{clip-path:url(#SVGID_14_);fill:#00619E;}
	.st8{clip-path:url(#SVGID_16_);fill:#00619E;}
	.st9{clip-path:url(#SVGID_18_);fill:#00619E;}
	.st10{clip-path:url(#SVGID_20_);fill:#FAC212;}
	.st11{clip-path:url(#SVGID_22_);fill:#00619E;}
	.st12{clip-path:url(#SVGID_24_);fill:#00619E;}
	.st13{clip-path:url(#SVGID_26_);fill:#00619E;}
	.st14{clip-path:url(#SVGID_28_);fill:#00619E;}
	.st15{clip-path:url(#SVGID_30_);fill:#00619E;}
	.st16{clip-path:url(#SVGID_32_);fill:#00619E;}
	.st17{clip-path:url(#SVGID_34_);fill:#00619E;}
	.st18{clip-path:url(#SVGID_36_);fill:#00619E;}
	.st19{clip-path:url(#SVGID_38_);fill:#00619E;}
	.st20{clip-path:url(#SVGID_40_);fill:#00619E;}
	.st21{clip-path:url(#SVGID_42_);fill:#00619E;}
	.st22{clip-path:url(#SVGID_44_);fill:#00619E;}
	.st23{clip-path:url(#SVGID_46_);fill:#00619E;}
	.st24{clip-path:url(#SVGID_48_);fill:#00619E;}
	.st25{clip-path:url(#SVGID_50_);fill:#00619E;}
	.st26{clip-path:url(#SVGID_52_);fill:#00619E;}
	.st27{clip-path:url(#SVGID_54_);fill:#00619E;}
	.st28{clip-path:url(#SVGID_56_);fill:#00619E;}
	.st29{clip-path:url(#SVGID_58_);fill:#00619E;}
	.st30{clip-path:url(#SVGID_60_);fill:#00619E;}
	.st31{clip-path:url(#SVGID_62_);fill:#00619E;}
	.st32{clip-path:url(#SVGID_64_);fill:#00619E;}
	.st33{clip-path:url(#SVGID_66_);fill:#00619E;}
	.st34{clip-path:url(#SVGID_68_);fill:#00619E;}
	.st35{clip-path:url(#SVGID_70_);fill:#249ED6;}
	.st36{clip-path:url(#SVGID_72_);fill:#249ED6;}
	.st37{clip-path:url(#SVGID_74_);fill:#249ED6;}
	.st38{clip-path:url(#SVGID_76_);fill:#249ED6;}
	.st39{clip-path:url(#SVGID_78_);fill:#249ED6;}
	.st40{clip-path:url(#SVGID_80_);fill:#249ED6;}
	.st41{clip-path:url(#SVGID_82_);fill:#249ED6;}
	.st42{clip-path:url(#SVGID_84_);fill:#249ED6;}
	.st43{clip-path:url(#SVGID_86_);fill:#249ED6;}
	.st44{clip-path:url(#SVGID_88_);fill:#249ED6;}
	.st45{clip-path:url(#SVGID_90_);fill:#249ED6;}
	.st46{clip-path:url(#SVGID_92_);fill:#249ED6;}
	.st47{clip-path:url(#SVGID_94_);fill:#249ED6;}
	.st48{clip-path:url(#SVGID_96_);fill:#249ED6;}
	.st49{clip-path:url(#SVGID_98_);fill:#249ED6;}
	.st50{clip-path:url(#SVGID_100_);fill:#249ED6;}
	.st51{clip-path:url(#SVGID_102_);fill:#249ED6;}
	.st52{clip-path:url(#SVGID_104_);fill:#249ED6;}
	.st53{clip-path:url(#SVGID_106_);fill:#00619E;}
	.st54{clip-path:url(#SVGID_108_);fill:#FFFFFF;}
	.st55{clip-path:url(#SVGID_110_);fill:#A4CDED;}
	.st56{clip-path:url(#SVGID_112_);fill:#249ED6;}
</style>
<polygon class="st0" points="98.7,33.9 98.7,49.1 94,49.1 94,33.9 88.7,33.9 88.7,30 104.1,30 104.1,33.9 "/>
<polygon class="st0" points="118.3,49.1 118.3,41.1 110.8,41.1 110.8,49.1 106.1,49.1 106.1,30 110.8,30 110.8,37.2 118.3,37.2 
	118.3,30 122.8,30 122.8,49.1 "/>
<polygon class="st0" points="126.7,49.1 126.7,30 139.6,30 139.6,33.9 131.2,33.9 131.2,37.5 139.1,37.5 139.1,41.2 131.2,41.2 
	131.2,45.1 140.1,45.1 140.1,49.1 "/>
<g>
	<g>
		<defs>
			<rect id="SVGID_1_" x="4.7" y="2.3" width="290.6" height="68.3"/>
		</defs>
		<clipPath id="SVGID_2_">
			<use xlink:href="#SVGID_1_"  style="overflow:visible;"/>
		</clipPath>
		<path class="st1" d="M153.4,49.1l-4.2-7.6h-1.6v7.6h-4.6V30h7.3c1,0,1.8,0.1,2.7,0.3c0.9,0.2,1.6,0.5,2.3,1c0.7,0.4,1.2,1,1.6,1.8
			c0.4,0.8,0.6,1.6,0.6,2.8c0,1.3-0.3,2.4-1,3.3c-0.7,0.9-1.6,1.5-2.9,1.9l5,8.1H153.4z M153.1,35.9c0-0.4-0.1-0.8-0.3-1.1
			c-0.2-0.3-0.4-0.5-0.7-0.6c-0.3-0.2-0.6-0.3-1-0.3c-0.3-0.1-0.7-0.1-1-0.1h-2.4v4.4h2.2c0.3,0,0.8,0,1.1-0.1
			c0.4-0.1,0.8-0.2,1.1-0.3c0.3-0.2,0.6-0.4,0.8-0.7C153,36.8,153.1,36.3,153.1,35.9"/>
	</g>
	<g>
		<defs>
			<rect id="SVGID_3_" x="4.7" y="2.3" width="290.6" height="68.3"/>
		</defs>
		<clipPath id="SVGID_4_">
			<use xlink:href="#SVGID_3_"  style="overflow:visible;"/>
		</clipPath>
		<path class="st2" d="M176.2,49.1l-1.5-3.7h-7.4l-1.4,3.7h-5l8-19.1h4.5l8,19.1H176.2z M171.1,35.1l-2.4,6.6h4.8L171.1,35.1z"/>
	</g>
	<g>
		<defs>
			<rect id="SVGID_5_" x="4.7" y="2.3" width="290.6" height="68.3"/>
		</defs>
		<clipPath id="SVGID_6_">
			<use xlink:href="#SVGID_5_"  style="overflow:visible;"/>
		</clipPath>
		<path class="st3" d="M197.9,35.9c0,1.1-0.2,2.1-0.6,2.9s-1,1.4-1.6,1.8c-0.7,0.4-1.5,0.8-2.4,1c-1,0.3-1.9,0.3-2.9,0.3h-2.3v7.2
			h-4.6V30h7c1,0,2,0.1,2.9,0.3c0.9,0.2,1.7,0.5,2.3,1c0.7,0.4,1.2,1,1.6,1.8C197.7,33.9,197.9,34.8,197.9,35.9 M193.3,35.9
			c0-0.4-0.1-0.8-0.3-1.1c-0.2-0.3-0.4-0.5-0.7-0.7c-0.3-0.2-0.7-0.3-1-0.3c-0.3-0.1-0.8-0.1-1.2-0.1h-2.1v4.5h1.9
			c0.4,0,0.9,0,1.2-0.1c0.4-0.1,0.8-0.2,1-0.3c0.3-0.2,0.5-0.4,0.8-0.7C193.2,36.8,193.3,36.3,193.3,35.9"/>
	</g>
	<g>
		<defs>
			<rect id="SVGID_7_" x="4.7" y="2.3" width="290.6" height="68.3"/>
		</defs>
		<clipPath id="SVGID_8_">
			<use xlink:href="#SVGID_7_"  style="overflow:visible;"/>
		</clipPath>
		<polygon class="st4" points="200.7,49.1 200.7,30 213.5,30 213.5,33.9 205.1,33.9 205.1,37.5 213.1,37.5 213.1,41.2 205.1,41.2 
			205.1,45.1 214,45.1 214,49.1 		"/>
	</g>
	<g>
		<defs>
			<rect id="SVGID_9_" x="4.7" y="2.3" width="290.6" height="68.3"/>
		</defs>
		<clipPath id="SVGID_10_">
			<use xlink:href="#SVGID_9_"  style="overflow:visible;"/>
		</clipPath>
		<path class="st5" d="M232.6,45.1c-0.3,1-1,1.7-1.6,2.4c-0.7,0.7-1.6,1.2-2.6,1.6c-1,0.3-2.2,0.6-3.4,0.6c-1.3,0-2.4-0.2-3.4-0.6
			c-1-0.3-1.8-0.9-2.6-1.6c-0.7-0.7-1.2-1.5-1.6-2.4c-0.3-1-0.6-2-0.6-3.1V30h4.6v11.5c0,0.5,0.1,1,0.2,1.5c0.2,0.4,0.3,0.9,0.6,1.2
			c0.3,0.3,0.6,0.7,1.1,0.9c0.4,0.2,1,0.3,1.6,0.3c0.6,0,1.2-0.1,1.6-0.3c0.4-0.2,0.9-0.5,1.1-0.9c0.3-0.3,0.5-0.8,0.6-1.2
			c0.1-0.4,0.2-1,0.2-1.5V30h4.6v11.9C233.2,43.1,233,44.1,232.6,45.1"/>
	</g>
	<g>
		<defs>
			<rect id="SVGID_11_" x="4.7" y="2.3" width="290.6" height="68.3"/>
		</defs>
		<clipPath id="SVGID_12_">
			<use xlink:href="#SVGID_11_"  style="overflow:visible;"/>
		</clipPath>
		<polygon class="st6" points="245.8,33.9 245.8,49.1 241.2,49.1 241.2,33.9 235.8,33.9 235.8,30 251.2,30 251.2,33.9 		"/>
	</g>
	<g>
		<defs>
			<rect id="SVGID_13_" x="4.7" y="2.3" width="290.6" height="68.3"/>
		</defs>
		<clipPath id="SVGID_14_">
			<use xlink:href="#SVGID_13_"  style="overflow:visible;"/>
		</clipPath>
		<rect x="253.8" y="30" class="st7" width="4.7" height="19.1"/>
	</g>
	<g>
		<defs>
			<rect id="SVGID_15_" x="4.7" y="2.3" width="290.6" height="68.3"/>
		</defs>
		<clipPath id="SVGID_16_">
			<use xlink:href="#SVGID_15_"  style="overflow:visible;"/>
		</clipPath>
		<path class="st8" d="M275.5,48.8c-1.2,0.6-2.7,0.9-4.3,0.9c-1.5,0-2.9-0.3-4.1-0.7c-1.2-0.5-2.3-1.2-3.3-2.1s-1.6-2-2.2-3.2
			c-0.5-1.2-0.8-2.6-0.8-4.1c0-1.6,0.3-2.9,0.8-4.2c0.5-1.2,1.3-2.3,2.2-3.2c1-0.9,2-1.6,3.3-2c1.3-0.4,2.6-0.7,4.1-0.7
			c1.4,0,2.7,0.3,4,0.7c1.3,0.5,2.3,1.2,3.2,2.1l-3.1,3.1c-0.4-0.6-1-1-1.7-1.3c-0.7-0.3-1.4-0.4-2.2-0.4c-0.8,0-1.6,0.2-2.2,0.4
			c-0.7,0.3-1.2,0.7-1.7,1.2c-0.5,0.5-0.9,1.1-1.1,1.8c-0.3,0.7-0.4,1.5-0.4,2.3c0,0.9,0.2,1.6,0.4,2.3c0.3,0.7,0.6,1.3,1.1,1.8
			c0.4,0.5,1,1,1.7,1.2c0.7,0.3,1.4,0.4,2.2,0.4c1,0,1.7-0.2,2.4-0.5c0.7-0.3,1.2-0.9,1.6-1.4l3.2,3
			C277.8,47.4,276.7,48.2,275.5,48.8"/>
	</g>
	<g>
		<defs>
			<rect id="SVGID_17_" x="4.7" y="2.3" width="290.6" height="68.3"/>
		</defs>
		<clipPath id="SVGID_18_">
			<use xlink:href="#SVGID_17_"  style="overflow:visible;"/>
		</clipPath>
		<path class="st9" d="M292.4,34.9c-0.4-0.5-1-0.9-1.6-1.2c-0.6-0.3-1.2-0.4-1.8-0.4c-0.3,0-0.6,0-1,0.1c-0.3,0.1-0.6,0.2-0.9,0.3
			c-0.3,0.2-0.4,0.3-0.6,0.6c-0.2,0.3-0.3,0.5-0.3,1c0,0.3,0.1,0.6,0.2,0.8c0.2,0.2,0.3,0.4,0.6,0.6c0.3,0.2,0.6,0.3,1,0.4
			c0.3,0.2,0.8,0.3,1.2,0.4c0.6,0.2,1.3,0.4,2,0.7c0.7,0.3,1.3,0.6,1.9,1c0.6,0.4,1,1,1.5,1.6c0.3,0.6,0.6,1.5,0.6,2.4
			c0,1.1-0.2,2.1-0.6,2.9c-0.4,0.8-1,1.5-1.6,2c-0.7,0.5-1.5,0.9-2.3,1.1s-1.8,0.3-2.7,0.3c-1.4,0-2.7-0.3-4-0.7
			c-1.3-0.4-2.3-1.1-3.2-2.1l3-3.1c0.4,0.6,1.1,1,1.8,1.5c0.8,0.3,1.6,0.6,2.2,0.6c0.3,0,0.7,0,1-0.1c0.3-0.1,0.6-0.2,0.9-0.3
			c0.3-0.2,0.4-0.3,0.6-0.6c0.2-0.3,0.2-0.6,0.2-1s-0.1-0.7-0.3-1c-0.2-0.3-0.4-0.5-0.8-0.7c-0.3-0.2-0.8-0.4-1.2-0.6
			c-0.5-0.2-1-0.3-1.6-0.5c-0.6-0.2-1.2-0.4-1.8-0.7c-0.6-0.3-1.1-0.6-1.6-1c-0.4-0.4-0.9-1-1.1-1.6s-0.4-1.3-0.4-2.2
			c0-1,0.3-2,0.6-2.7c0.4-0.8,1-1.4,1.7-1.9c0.7-0.5,1.5-0.9,2.3-1c0.9-0.3,1.7-0.3,2.7-0.3c1,0,2.2,0.2,3.3,0.6
			c1.1,0.4,2.1,1,2.9,1.7L292.4,34.9z"/>
	</g>
	<g>
		<defs>
			<rect id="SVGID_19_" x="4.7" y="2.3" width="290.6" height="68.3"/>
		</defs>
		<clipPath id="SVGID_20_">
			<use xlink:href="#SVGID_19_"  style="overflow:visible;"/>
		</clipPath>
		<rect x="89.5" y="22.1" class="st10" width="205.7" height="1"/>
	</g>
	<g>
		<defs>
			<rect id="SVGID_21_" x="4.7" y="2.3" width="290.6" height="68.3"/>
		</defs>
		<clipPath id="SVGID_22_">
			<use xlink:href="#SVGID_21_"  style="overflow:visible;"/>
		</clipPath>
		<path class="st11" d="M93.7,15.3c1.4,0,2.7-0.6,3.4-1.6l0.1-0.2l-2-1.5l-0.1,0.2c-0.3,0.5-1,0.9-1.6,0.9c-1.3,0-2.3-1.1-2.3-2.7
			s1-2.7,2.4-2.7c0.7,0,1.2,0.3,1.6,0.7l0.1,0.2L97,7.1l-0.1-0.2c-1-1.3-2.7-1.4-3.2-1.4c-2.9,0-5,2-5,4.9
			C88.7,13.2,90.7,15.3,93.7,15.3"/>
	</g>
	<g>
		<defs>
			<rect id="SVGID_23_" x="4.7" y="2.3" width="290.6" height="68.3"/>
		</defs>
		<clipPath id="SVGID_24_">
			<use xlink:href="#SVGID_23_"  style="overflow:visible;"/>
		</clipPath>
		<polygon class="st12" points="100.9,15 103.3,15 103.3,11.1 106.8,5.7 104,5.7 102.1,8.8 100.3,5.7 97.4,5.7 100.9,11.1 		"/>
	</g>
	<g>
		<defs>
			<rect id="SVGID_25_" x="4.7" y="2.3" width="290.6" height="68.3"/>
		</defs>
		<clipPath id="SVGID_26_">
			<use xlink:href="#SVGID_25_"  style="overflow:visible;"/>
		</clipPath>
		<path class="st13" d="M109.8,11.3c1,0.3,1.5,0.5,1.5,1c0,0.4-0.6,0.7-1.1,0.7c-0.6,0-1.2-0.3-1.6-0.8l-0.2-0.2l-1.7,1.9l0.2,0.2
			c0.9,0.8,1.9,1.2,3.1,1.2c2.2,0,3.6-1.2,3.6-3.1c0-2-1.6-2.4-2.7-2.8c-0.9-0.3-1.4-0.4-1.4-1c0-0.5,0.7-0.7,1.1-0.7
			c0.4,0,1,0.2,1.3,0.5l0.2,0.2l1.6-1.8l-0.2-0.2c-0.8-0.7-1.7-1-2.9-1c-1.7,0-3.6,1-3.6,3.1C107.1,10.5,108.6,10.9,109.8,11.3"/>
	</g>
	<g>
		<defs>
			<rect id="SVGID_27_" x="4.7" y="2.3" width="290.6" height="68.3"/>
		</defs>
		<clipPath id="SVGID_28_">
			<use xlink:href="#SVGID_27_"  style="overflow:visible;"/>
		</clipPath>
		<polygon class="st14" points="119.5,15 119.5,7.9 122.1,7.9 122.1,5.7 114.5,5.7 114.5,7.9 117.1,7.9 117.1,15 		"/>
	</g>
	<g>
		<defs>
			<rect id="SVGID_29_" x="4.7" y="2.3" width="290.6" height="68.3"/>
		</defs>
		<clipPath id="SVGID_30_">
			<use xlink:href="#SVGID_29_"  style="overflow:visible;"/>
		</clipPath>
		<rect x="123.4" y="5.7" class="st15" width="2.3" height="9.3"/>
	</g>
	<g>
		<defs>
			<rect id="SVGID_31_" x="4.7" y="2.3" width="290.6" height="68.3"/>
		</defs>
		<clipPath id="SVGID_32_">
			<use xlink:href="#SVGID_31_"  style="overflow:visible;"/>
		</clipPath>
		<path class="st16" d="M135.7,13.7l0.1-0.2l-2-1.5l-0.1,0.2c-0.3,0.5-1,0.9-1.6,0.9c-1.3,0-2.3-1.1-2.3-2.7s1-2.7,2.4-2.7
			c0.7,0,1.2,0.3,1.6,0.7l0.1,0.2l1.8-1.5l-0.1-0.2c-1-1.3-2.7-1.4-3.2-1.4c-2.9,0-5,2-5,4.9c0,2.9,2.1,4.9,5,4.9
			C133.7,15.3,135,14.6,135.7,13.7"/>
	</g>
	<g>
		<defs>
			<rect id="SVGID_33_" x="4.7" y="2.3" width="290.6" height="68.3"/>
		</defs>
		<clipPath id="SVGID_34_">
			<use xlink:href="#SVGID_33_"  style="overflow:visible;"/>
		</clipPath>
		<polygon class="st17" points="142.9,11.6 146.6,11.6 146.6,9.3 142.9,9.3 142.9,8 147,8 147,5.7 140.6,5.7 140.6,15 142.9,15 		
			"/>
	</g>
	<g>
		<defs>
			<rect id="SVGID_35_" x="4.7" y="2.3" width="290.6" height="68.3"/>
		</defs>
		<clipPath id="SVGID_36_">
			<use xlink:href="#SVGID_35_"  style="overflow:visible;"/>
		</clipPath>
		<rect x="148.7" y="5.7" class="st18" width="2.3" height="9.3"/>
	</g>
	<g>
		<defs>
			<rect id="SVGID_37_" x="4.7" y="2.3" width="290.6" height="68.3"/>
		</defs>
		<clipPath id="SVGID_38_">
			<use xlink:href="#SVGID_37_"  style="overflow:visible;"/>
		</clipPath>
		<path class="st19" d="M160.4,12.4c0-1-0.6-1.9-1.6-2.2c0.7-0.4,1.1-1.1,1.1-1.9c0-2.5-2.6-2.5-3.5-2.5h-3.5V15h3.9
			C158.6,15,160.4,14.4,160.4,12.4 M156.6,9.4h-1.5V7.7h1.3c0.6,0,1.3,0.2,1.3,0.9C157.8,9.3,156.9,9.4,156.6,9.4 M156.9,13.1h-1.8
			v-1.9h1.5c0.7,0,1.6,0.2,1.6,0.9C158.2,13.1,157.2,13.1,156.9,13.1"/>
	</g>
	<g>
		<defs>
			<rect id="SVGID_39_" x="4.7" y="2.3" width="290.6" height="68.3"/>
		</defs>
		<clipPath id="SVGID_40_">
			<use xlink:href="#SVGID_39_"  style="overflow:visible;"/>
		</clipPath>
		<path class="st20" d="M169.1,8.6c0-1.9-1.2-2.9-3.5-2.9h-3.6V15h2.3v-3.5h0.6l1.9,3.5h2.9l-2.3-3.8
			C168.5,10.9,169.1,9.9,169.1,8.6 M164.3,7.7h1.2c1,0,1.5,0.3,1.5,1c0,0.8-0.6,0.9-1.6,0.9h-1V7.7z"/>
	</g>
	<g>
		<defs>
			<rect id="SVGID_41_" x="4.7" y="2.3" width="290.6" height="68.3"/>
		</defs>
		<clipPath id="SVGID_42_">
			<use xlink:href="#SVGID_41_"  style="overflow:visible;"/>
		</clipPath>
		<path class="st21" d="M175.2,5.4c-2.9,0-5,2-5,4.9c0,2.9,2.1,4.9,5,4.9c2.9,0,5-2,5-4.9C180.2,7.5,178.2,5.4,175.2,5.4
			 M175.2,13.1c-1.6,0-2.6-1-2.6-2.7c0-1.6,1-2.7,2.6-2.7c1.6,0,2.6,1,2.6,2.7C177.8,11.9,176.7,13.1,175.2,13.1"/>
	</g>
	<g>
		<defs>
			<rect id="SVGID_43_" x="4.7" y="2.3" width="290.6" height="68.3"/>
		</defs>
		<clipPath id="SVGID_44_">
			<use xlink:href="#SVGID_43_"  style="overflow:visible;"/>
		</clipPath>
		<path class="st22" d="M184.8,7.7c0.4,0,1,0.2,1.3,0.5l0.2,0.2l1.6-1.8l-0.2-0.2c-0.8-0.7-1.7-1-2.9-1c-1.7,0-3.6,1-3.6,3.1
			c0,1.8,1.5,2.3,2.7,2.7c1,0.3,1.5,0.5,1.5,1c0,0.4-0.6,0.7-1.1,0.7c-0.6,0-1.2-0.3-1.6-0.8l-0.2-0.2l-1.7,1.9l0.2,0.2
			c0.9,0.8,1.9,1.2,3.1,1.2c2.2,0,3.6-1.2,3.6-3.1c0-2-1.6-2.4-2.7-2.8c-0.9-0.3-1.4-0.4-1.4-1C183.6,7.9,184.3,7.7,184.8,7.7"/>
	</g>
	<g>
		<defs>
			<rect id="SVGID_45_" x="4.7" y="2.3" width="290.6" height="68.3"/>
		</defs>
		<clipPath id="SVGID_46_">
			<use xlink:href="#SVGID_45_"  style="overflow:visible;"/>
		</clipPath>
		<rect x="189.3" y="5.7" class="st23" width="2.3" height="9.3"/>
	</g>
	<g>
		<defs>
			<rect id="SVGID_47_" x="4.7" y="2.3" width="290.6" height="68.3"/>
		</defs>
		<clipPath id="SVGID_48_">
			<use xlink:href="#SVGID_47_"  style="overflow:visible;"/>
		</clipPath>
		<path class="st24" d="M197.1,9.3c-0.9-0.3-1.4-0.4-1.4-1s0.7-0.7,1.1-0.7s1,0.2,1.3,0.5l0.2,0.2l1.6-1.8l-0.2-0.2
			c-0.8-0.7-1.7-1-2.9-1c-1.7,0-3.6,1-3.6,3.1c0,1.8,1.5,2.3,2.7,2.7c1,0.3,1.5,0.5,1.5,1c0,0.4-0.6,0.7-1.1,0.7
			c-0.6,0-1.2-0.3-1.6-0.8l-0.2-0.2l-1.7,1.9l0.2,0.2c0.9,0.8,1.9,1.2,3.1,1.2c2.2,0,3.6-1.2,3.6-3.1
			C199.7,10.1,198.2,9.7,197.1,9.3"/>
	</g>
	<g>
		<defs>
			<rect id="SVGID_49_" x="4.7" y="2.3" width="290.6" height="68.3"/>
		</defs>
		<clipPath id="SVGID_50_">
			<use xlink:href="#SVGID_49_"  style="overflow:visible;"/>
		</clipPath>
		<polygon class="st25" points="205.3,15 207.6,15 207.6,11.6 211.3,11.6 211.3,9.3 207.6,9.3 207.6,8 211.7,8 211.7,5.7 205.3,5.7 
					"/>
	</g>
	<g>
		<defs>
			<rect id="SVGID_51_" x="4.7" y="2.3" width="290.6" height="68.3"/>
		</defs>
		<clipPath id="SVGID_52_">
			<use xlink:href="#SVGID_51_"  style="overflow:visible;"/>
		</clipPath>
		<path class="st26" d="M217.6,5.4c-2.9,0-5,2-5,4.9c0,2.9,2.1,4.9,5,4.9s5-2,5-4.9C222.6,7.5,220.5,5.4,217.6,5.4 M217.6,13.1
			c-1.6,0-2.6-1-2.6-2.7c0-1.6,1-2.7,2.6-2.7c1.6,0,2.6,1,2.6,2.7C220.2,11.9,219.1,13.1,217.6,13.1"/>
	</g>
	<g>
		<defs>
			<rect id="SVGID_53_" x="4.7" y="2.3" width="290.6" height="68.3"/>
		</defs>
		<clipPath id="SVGID_54_">
			<use xlink:href="#SVGID_53_"  style="overflow:visible;"/>
		</clipPath>
		<path class="st27" d="M229.5,11.3c0,1-0.7,1.7-1.6,1.7c-1,0-1.6-0.7-1.6-1.7V5.7H224v5.7c0,2.4,1.6,3.9,4,3.9c2.4,0,4-1.5,4-3.9
			V5.7h-2.3L229.5,11.3L229.5,11.3z"/>
	</g>
	<g>
		<defs>
			<rect id="SVGID_55_" x="4.7" y="2.3" width="290.6" height="68.3"/>
		</defs>
		<clipPath id="SVGID_56_">
			<use xlink:href="#SVGID_55_"  style="overflow:visible;"/>
		</clipPath>
		<polygon class="st28" points="240.2,11.4 236.7,5.7 233.7,5.7 233.7,15 236.1,15 236.1,9.2 239.7,15 242.6,15 242.6,5.7 
			240.2,5.7 		"/>
	</g>
	<g>
		<defs>
			<rect id="SVGID_57_" x="4.7" y="2.3" width="290.6" height="68.3"/>
		</defs>
		<clipPath id="SVGID_58_">
			<use xlink:href="#SVGID_57_"  style="overflow:visible;"/>
		</clipPath>
		<path class="st29" d="M247.7,5.7h-3.1V15h3.5c2.5,0,5.2-1.5,5.2-4.7C253.1,7.4,251.1,5.7,247.7,5.7 M250.7,10.3c0,1.7-1,2.5-3,2.5
			h-0.8V8h1C249.2,8,250.7,8.6,250.7,10.3"/>
	</g>
	<g>
		<defs>
			<rect id="SVGID_59_" x="4.7" y="2.3" width="290.6" height="68.3"/>
		</defs>
		<clipPath id="SVGID_60_">
			<use xlink:href="#SVGID_59_"  style="overflow:visible;"/>
		</clipPath>
		<path class="st30" d="M257.2,5.7l-4.1,9.3h2.6l0.8-1.9h3.2l0.8,1.9h2.7l-4.1-9.3C259.1,5.7,257.2,5.7,257.2,5.7z M259.1,11.1H257
			l1-2.7L259.1,11.1z"/>
	</g>
	<g>
		<defs>
			<rect id="SVGID_61_" x="4.7" y="2.3" width="290.6" height="68.3"/>
		</defs>
		<clipPath id="SVGID_62_">
			<use xlink:href="#SVGID_61_"  style="overflow:visible;"/>
		</clipPath>
		<polygon class="st31" points="262.4,7.9 264.9,7.9 264.9,15 267.3,15 267.3,7.9 269.8,7.9 269.8,5.7 262.4,5.7 		"/>
	</g>
	<g>
		<defs>
			<rect id="SVGID_63_" x="4.7" y="2.3" width="290.6" height="68.3"/>
		</defs>
		<clipPath id="SVGID_64_">
			<use xlink:href="#SVGID_63_"  style="overflow:visible;"/>
		</clipPath>
		<rect x="271" y="5.7" class="st32" width="2.3" height="9.3"/>
	</g>
	<g>
		<defs>
			<rect id="SVGID_65_" x="4.7" y="2.3" width="290.6" height="68.3"/>
		</defs>
		<clipPath id="SVGID_66_">
			<use xlink:href="#SVGID_65_"  style="overflow:visible;"/>
		</clipPath>
		<path class="st33" d="M279.8,5.4c-2.9,0-5,2-5,4.9c0,2.9,2.1,4.9,5,4.9s5-2,5-4.9C284.9,7.5,282.8,5.4,279.8,5.4 M279.8,13.1
			c-1.6,0-2.6-1-2.6-2.7c0-1.6,1-2.7,2.6-2.7c1.6,0,2.6,1,2.6,2.7C282.4,11.9,281.4,13.1,279.8,13.1"/>
	</g>
	<g>
		<defs>
			<rect id="SVGID_67_" x="4.7" y="2.3" width="290.6" height="68.3"/>
		</defs>
		<clipPath id="SVGID_68_">
			<use xlink:href="#SVGID_67_"  style="overflow:visible;"/>
		</clipPath>
		<polygon class="st34" points="292.8,11.4 289.3,5.7 286.3,5.7 286.3,15 288.7,15 288.7,9.2 292.3,15 295.1,15 295.1,5.7 
			292.8,5.7 		"/>
	</g>
	<g>
		<defs>
			<rect id="SVGID_69_" x="4.7" y="2.3" width="290.6" height="68.3"/>
		</defs>
		<clipPath id="SVGID_70_">
			<use xlink:href="#SVGID_69_"  style="overflow:visible;"/>
		</clipPath>
		<path class="st35" d="M99.7,61.7c0,1-0.2,1.8-0.5,2.5c-0.3,0.7-0.9,1.3-1.4,1.7c-0.6,0.4-1.2,0.8-2,1c-0.7,0.2-1.5,0.3-2.2,0.3
			h-4.1v-11h4c0.8,0,1.6,0.1,2.2,0.3c0.8,0.2,1.4,0.5,2,0.9c0.6,0.4,1,1,1.4,1.6C99.6,59.8,99.7,60.6,99.7,61.7 M97,61.7
			c0-0.6-0.1-1.1-0.3-1.6c-0.2-0.4-0.4-0.7-0.8-1c-0.3-0.3-0.7-0.4-1.1-0.5c-0.4-0.1-0.9-0.2-1.3-0.2H92v6.4h1.3
			c0.4,0,1-0.1,1.4-0.2c0.4-0.1,0.9-0.3,1.1-0.5c0.3-0.3,0.6-0.6,0.8-1C96.9,62.8,97,62.3,97,61.7"/>
	</g>
	<g>
		<defs>
			<rect id="SVGID_71_" x="4.7" y="2.3" width="290.6" height="68.3"/>
		</defs>
		<clipPath id="SVGID_72_">
			<use xlink:href="#SVGID_71_"  style="overflow:visible;"/>
		</clipPath>
		<polygon class="st36" points="101.5,67.2 101.5,56.2 108.8,56.2 108.8,58.5 104.1,58.5 104.1,60.5 108.6,60.5 108.6,62.6 
			104.1,62.6 104.1,65 109.2,65 109.2,67.2 		"/>
	</g>
	<g>
		<defs>
			<rect id="SVGID_73_" x="4.7" y="2.3" width="290.6" height="68.3"/>
		</defs>
		<clipPath id="SVGID_74_">
			<use xlink:href="#SVGID_73_"  style="overflow:visible;"/>
		</clipPath>
		<polygon class="st37" points="116.9,67.2 114.2,67.2 110,56.2 113,56.2 115.6,64 115.7,64 118.2,56.2 121.1,56.2 		"/>
	</g>
	<g>
		<defs>
			<rect id="SVGID_75_" x="4.7" y="2.3" width="290.6" height="68.3"/>
		</defs>
		<clipPath id="SVGID_76_">
			<use xlink:href="#SVGID_75_"  style="overflow:visible;"/>
		</clipPath>
		<polygon class="st38" points="122.1,67.2 122.1,56.2 129.6,56.2 129.6,58.5 124.7,58.5 124.7,60.5 129.2,60.5 129.2,62.6 
			124.7,62.6 124.7,65 129.8,65 129.8,67.2 		"/>
	</g>
	<g>
		<defs>
			<rect id="SVGID_77_" x="4.7" y="2.3" width="290.6" height="68.3"/>
		</defs>
		<clipPath id="SVGID_78_">
			<use xlink:href="#SVGID_77_"  style="overflow:visible;"/>
		</clipPath>
		<polygon class="st39" points="131.6,67.2 131.6,56.2 134.3,56.2 134.3,64.9 138.5,64.9 138.5,67.2 		"/>
	</g>
	<g>
		<defs>
			<rect id="SVGID_79_" x="4.7" y="2.3" width="290.6" height="68.3"/>
		</defs>
		<clipPath id="SVGID_80_">
			<use xlink:href="#SVGID_79_"  style="overflow:visible;"/>
		</clipPath>
		<path class="st40" d="M151.2,61.7c0,0.9-0.2,1.6-0.4,2.4c-0.3,0.7-0.7,1.3-1.2,1.8c-0.5,0.5-1.1,0.9-1.9,1.2
			c-0.7,0.3-1.6,0.4-2.4,0.4s-1.6-0.2-2.3-0.4c-0.7-0.3-1.4-0.7-1.9-1.2c-0.5-0.5-1-1.1-1.2-1.8c-0.3-0.7-0.4-1.5-0.4-2.4
			c0-0.9,0.2-1.6,0.4-2.3c0.3-0.7,0.7-1.3,1.2-1.8c0.5-0.5,1.1-0.9,1.9-1.1c0.7-0.3,1.6-0.4,2.3-0.4c0.9,0,1.6,0.2,2.4,0.4
			c0.7,0.3,1.4,0.7,1.9,1.1c0.5,0.5,1,1.1,1.2,1.8S151.2,60.8,151.2,61.7 M148.4,61.7c0-0.4-0.1-1-0.3-1.3c-0.2-0.4-0.3-0.8-0.6-1
			c-0.3-0.3-0.6-0.5-1-0.7c-0.3-0.2-0.8-0.3-1.3-0.3c-0.4,0-0.9,0.1-1.3,0.3c-0.3,0.2-0.7,0.4-1,0.7c-0.3,0.3-0.5,0.7-0.6,1
			s-0.3,0.9-0.3,1.3c0,0.5,0.1,1,0.3,1.4c0.2,0.4,0.3,0.8,0.6,1c0.3,0.3,0.6,0.5,1,0.7s0.8,0.3,1.3,0.3c0.4,0,0.9-0.1,1.3-0.3
			c0.3-0.2,0.7-0.4,1-0.7c0.3-0.3,0.5-0.7,0.7-1C148.3,62.6,148.4,62.2,148.4,61.7"/>
	</g>
	<g>
		<defs>
			<rect id="SVGID_81_" x="4.7" y="2.3" width="290.6" height="68.3"/>
		</defs>
		<clipPath id="SVGID_82_">
			<use xlink:href="#SVGID_81_"  style="overflow:visible;"/>
		</clipPath>
		<path class="st41" d="M161.3,59.6c0,0.6-0.1,1.2-0.3,1.6c-0.3,0.4-0.5,0.8-1,1c-0.4,0.3-0.9,0.4-1.4,0.6c-0.5,0.1-1,0.2-1.6,0.2
			h-1.3v4.2H153v-11h4.1c0.6,0,1.1,0.1,1.6,0.2c0.5,0.1,1,0.3,1.4,0.6c0.3,0.3,0.7,0.6,1,1C161.2,58.5,161.3,59,161.3,59.6
			 M158.6,59.6c0-0.3-0.1-0.4-0.2-0.6c-0.1-0.2-0.3-0.3-0.4-0.3c-0.2-0.1-0.3-0.2-0.6-0.2c-0.3,0-0.4-0.1-0.7-0.1h-1.1V61h1.1
			c0.3,0,0.5,0,0.7-0.1c0.3,0,0.4-0.1,0.6-0.3c0.2-0.1,0.3-0.3,0.4-0.4C158.6,60.1,158.6,59.9,158.6,59.6"/>
	</g>
	<g>
		<defs>
			<rect id="SVGID_83_" x="4.7" y="2.3" width="290.6" height="68.3"/>
		</defs>
		<clipPath id="SVGID_84_">
			<use xlink:href="#SVGID_83_"  style="overflow:visible;"/>
		</clipPath>
		<polygon class="st42" points="173,67.2 173.1,59.4 173,59.4 170.2,67.2 168.3,67.2 165.6,59.4 165.5,59.4 165.6,67.2 163.1,67.2 
			163.1,56.2 166.8,56.2 169.3,63.2 169.4,63.2 171.8,56.2 175.6,56.2 175.6,67.2 		"/>
	</g>
	<g>
		<defs>
			<rect id="SVGID_85_" x="4.7" y="2.3" width="290.6" height="68.3"/>
		</defs>
		<clipPath id="SVGID_86_">
			<use xlink:href="#SVGID_85_"  style="overflow:visible;"/>
		</clipPath>
		<polygon class="st43" points="178,67.2 178,56.2 185.4,56.2 185.4,58.5 180.5,58.5 180.5,60.5 185.1,60.5 185.1,62.6 180.5,62.6 
			180.5,65 185.6,65 185.6,67.2 		"/>
	</g>
	<g>
		<defs>
			<rect id="SVGID_87_" x="4.7" y="2.3" width="290.6" height="68.3"/>
		</defs>
		<clipPath id="SVGID_88_">
			<use xlink:href="#SVGID_87_"  style="overflow:visible;"/>
		</clipPath>
		<polygon class="st44" points="194.4,67.2 190,60 189.9,60 190,67.2 187.4,67.2 187.4,56.2 190.4,56.2 194.8,63.4 194.9,63.4 
			194.8,56.2 197.4,56.2 197.4,67.2 		"/>
	</g>
	<g>
		<defs>
			<rect id="SVGID_89_" x="4.7" y="2.3" width="290.6" height="68.3"/>
		</defs>
		<clipPath id="SVGID_90_">
			<use xlink:href="#SVGID_89_"  style="overflow:visible;"/>
		</clipPath>
		<polygon class="st45" points="204.6,58.5 204.6,67.2 202,67.2 202,58.5 198.9,58.5 198.9,56.2 207.7,56.2 207.7,58.5 		"/>
	</g>
	<g>
		<defs>
			<rect id="SVGID_91_" x="4.7" y="2.3" width="290.6" height="68.3"/>
		</defs>
		<clipPath id="SVGID_92_">
			<use xlink:href="#SVGID_91_"  style="overflow:visible;"/>
		</clipPath>
		<polygon class="st46" points="220,67.2 215.6,60 215.5,60 215.6,67.2 213,67.2 213,56.2 216,56.2 220.4,63.4 220.5,63.4 
			220.4,56.2 223,56.2 223,67.2 		"/>
	</g>
	<g>
		<defs>
			<rect id="SVGID_93_" x="4.7" y="2.3" width="290.6" height="68.3"/>
		</defs>
		<clipPath id="SVGID_94_">
			<use xlink:href="#SVGID_93_"  style="overflow:visible;"/>
		</clipPath>
		<polygon class="st47" points="225.3,67.2 225.3,56.2 232.7,56.2 232.7,58.5 227.8,58.5 227.8,60.5 232.4,60.5 232.4,62.6 
			227.8,62.6 227.8,65 233,65 233,67.2 		"/>
	</g>
	<g>
		<defs>
			<rect id="SVGID_95_" x="4.7" y="2.3" width="290.6" height="68.3"/>
		</defs>
		<clipPath id="SVGID_96_">
			<use xlink:href="#SVGID_95_"  style="overflow:visible;"/>
		</clipPath>
		<polygon class="st48" points="240,58.5 240,67.2 237.3,67.2 237.3,58.5 234.2,58.5 234.2,56.2 243.1,56.2 243.1,58.5 		"/>
	</g>
	<g>
		<defs>
			<rect id="SVGID_97_" x="4.7" y="2.3" width="290.6" height="68.3"/>
		</defs>
		<clipPath id="SVGID_98_">
			<use xlink:href="#SVGID_97_"  style="overflow:visible;"/>
		</clipPath>
		<polygon class="st49" points="257.4,67.2 254.8,67.2 252.7,59.8 252.6,59.8 250.4,67.2 247.7,67.2 244.6,56.2 247.5,56.2 
			249.2,63.5 249.3,63.5 251.3,56.2 254,56.2 256,63.5 256,63.5 257.8,56.2 260.5,56.2 		"/>
	</g>
	<g>
		<defs>
			<rect id="SVGID_99_" x="4.7" y="2.3" width="290.6" height="68.3"/>
		</defs>
		<clipPath id="SVGID_100_">
			<use xlink:href="#SVGID_99_"  style="overflow:visible;"/>
		</clipPath>
		<path class="st50" d="M272.9,61.7c0,0.9-0.2,1.6-0.4,2.4c-0.3,0.7-0.7,1.3-1.2,1.8c-0.5,0.5-1.1,0.9-1.9,1.2
			c-0.7,0.3-1.6,0.4-2.4,0.4s-1.6-0.2-2.3-0.4c-0.7-0.3-1.4-0.7-1.9-1.2c-0.5-0.5-1-1.1-1.2-1.8c-0.3-0.7-0.4-1.5-0.4-2.4
			c0-0.9,0.2-1.6,0.4-2.3c0.3-0.7,0.7-1.3,1.2-1.8c0.5-0.5,1.1-0.9,1.9-1.1c0.7-0.3,1.6-0.4,2.3-0.4c0.9,0,1.6,0.2,2.4,0.4
			c0.7,0.3,1.4,0.7,1.9,1.1c0.5,0.5,1,1.1,1.2,1.8S272.9,60.8,272.9,61.7 M270.1,61.7c0-0.4-0.1-1-0.3-1.3c-0.2-0.4-0.3-0.8-0.6-1
			c-0.3-0.3-0.6-0.5-1-0.7c-0.3-0.2-0.8-0.3-1.3-0.3c-0.4,0-0.9,0.1-1.3,0.3c-0.3,0.2-0.7,0.4-1,0.7c-0.3,0.3-0.5,0.7-0.6,1
			c-0.1,0.3-0.3,0.9-0.3,1.3c0,0.5,0.1,1,0.3,1.4c0.2,0.4,0.3,0.8,0.6,1c0.3,0.3,0.6,0.5,1,0.7c0.3,0.2,0.8,0.3,1.3,0.3
			c0.4,0,0.9-0.1,1.3-0.3c0.3-0.2,0.7-0.4,1-0.7c0.3-0.3,0.5-0.7,0.7-1C270.1,62.6,270.1,62.2,270.1,61.7"/>
	</g>
	<g>
		<defs>
			<rect id="SVGID_101_" x="4.7" y="2.3" width="290.6" height="68.3"/>
		</defs>
		<clipPath id="SVGID_102_">
			<use xlink:href="#SVGID_101_"  style="overflow:visible;"/>
		</clipPath>
		<path class="st51" d="M280.5,67.2l-2.4-4.3h-0.9v4.3h-2.6v-11h4.2c0.5,0,1,0.1,1.6,0.2c0.5,0.1,1,0.3,1.4,0.5c0.4,0.3,0.7,0.6,1,1
			c0.3,0.4,0.3,1,0.3,1.6c0,0.8-0.2,1.4-0.6,1.9c-0.4,0.5-1,0.9-1.6,1.1l2.9,4.7H280.5z M280.4,59.6c0-0.3-0.1-0.4-0.2-0.6
			c-0.1-0.2-0.3-0.3-0.4-0.3c-0.2-0.1-0.3-0.2-0.6-0.2c-0.2,0-0.4-0.1-0.6-0.1h-1.4V61h1.3c0.3,0,0.4,0,0.7-0.1
			c0.3,0,0.4-0.1,0.6-0.2c0.2-0.1,0.3-0.3,0.4-0.4C280.4,60.1,280.4,59.9,280.4,59.6"/>
	</g>
	<g>
		<defs>
			<rect id="SVGID_103_" x="4.7" y="2.3" width="290.6" height="68.3"/>
		</defs>
		<clipPath id="SVGID_104_">
			<use xlink:href="#SVGID_103_"  style="overflow:visible;"/>
		</clipPath>
		<polygon class="st52" points="291.9,67.2 287.8,62.2 287.7,62.2 287.7,67.2 285.1,67.2 285.1,56.2 287.7,56.2 287.7,60.7 
			287.8,60.7 291.7,56.2 295.1,56.2 290.3,61.2 295.3,67.2 		"/>
	</g>
	<g>
		<defs>
			<rect id="SVGID_105_" x="4.7" y="2.3" width="290.6" height="68.3"/>
		</defs>
		<clipPath id="SVGID_106_">
			<use xlink:href="#SVGID_105_"  style="overflow:visible;"/>
		</clipPath>
		<path class="st53" d="M39.6,18.3c-7.8,4.8-15.1,9.3-15.1,18.2c0,0.9,0.1,1.6,0.2,2.3h26.9c-0.2,1-0.4,1.8-0.8,2.7H25.4
			c0.7,1.7,1.6,3.3,2.9,4.8h19c-1,1-2,1.8-3.2,2.7h-13c1.9,1.6,4.1,2.9,6.3,4.4c-0.9,0.5-1.6,1-2.5,1.6c-6.9-4.4-13.1-9.4-13.1-18.3
			c0-10.4,8.4-15.5,16.4-20.4c5.4-3.4,10.7-6.6,13.4-11.2c-4.1-1.7-8.4-2.6-12.9-2.6s-8.7,0.9-12.6,2.4c0.4,0.9,1,1.6,1.6,2.3h20.1
			c-0.9,1-1.9,1.8-3,2.7H30.5c2,1.7,4.4,3.4,6.9,4.9l0,0c-0.9,0.5-1.6,1-2.5,1.6c-4.5-2.9-8.7-6.1-11.2-10.4
			c-11.2,5.5-19,17.1-19,30.6s7.8,25.1,19.1,30.6c2.9-5.4,8.7-9,14.4-12.5c7.8-4.8,15.1-9.3,15.1-18.2c0-0.9-0.1-1.6-0.2-2.3H26.3
			c0.2-1,0.4-1.8,0.8-2.7h25.4c-0.7-1.7-1.6-3.3-2.9-4.8h-19c1-1,2-1.8,3.2-2.7h13.1c-1.9-1.6-4.1-2.9-6.3-4.4l0,0
			c0.9-0.5,1.6-1,2.5-1.6c6.9,4.4,13.1,9.4,13.1,18.3c0,10.4-8.4,15.5-16.4,20.4c-5.4,3.5-10.7,6.7-13.4,11.4
			c3.9,1.6,8.2,2.4,12.6,2.4c4.5,0,8.8-0.9,12.8-2.5c-0.4-0.8-1-1.6-1.6-2.3H29.9c0.9-1,1.9-1.8,3-2.7h14.4
			c-2.1-1.7-4.4-3.4-6.9-4.9l0,0c0.9-0.5,1.6-1,2.5-1.6c4.5,2.9,8.7,6,11.1,10.4C65.3,61.5,73,49.9,73,36.5s-7.7-25-18.9-30.6
			C51.1,11.3,45.3,14.9,39.6,18.3"/>
	</g>
	<g>
		<defs>
			<rect id="SVGID_107_" x="4.7" y="2.3" width="290.6" height="68.3"/>
		</defs>
		<clipPath id="SVGID_108_">
			<use xlink:href="#SVGID_107_"  style="overflow:visible;"/>
		</clipPath>
		<path class="st54" d="M39.6,56.9c8-4.9,16.4-10,16.4-20.4c0-9-6.2-14-13.1-18.3c-0.9,0.5-1.6,1-2.5,1.6l0,0
			c2.2,1.4,4.4,2.9,6.3,4.4H33.7c-1.1,0.9-2.2,1.7-3.2,2.7h19c1.3,1.4,2.2,2.9,2.9,4.8H27.1c-0.3,0.9-0.6,1.7-0.8,2.7h26.9
			c0.1,0.8,0.2,1.6,0.2,2.3c0,8.9-7.4,13.4-15.1,18.2c-5.7,3.5-11.5,7-14.4,12.5c0.8,0.4,1.6,0.8,2.4,1.1
			C28.9,63.5,34.2,60.3,39.6,56.9"/>
	</g>
	<g>
		<defs>
			<rect id="SVGID_109_" x="4.7" y="2.3" width="290.6" height="68.3"/>
		</defs>
		<clipPath id="SVGID_110_">
			<use xlink:href="#SVGID_109_"  style="overflow:visible;"/>
		</clipPath>
		<path class="st55" d="M38.2,16.1c-8,4.9-16.4,10-16.4,20.4c0,8.9,6.2,14,13.1,18.3c0.9-0.5,1.7-1,2.5-1.6
			c-2.2-1.4-4.4-2.9-6.3-4.4h13.1c1.1-0.9,2.2-1.7,3.2-2.7h-19c-1.3-1.4-2.2-2.9-2.9-4.8h25.4c0.3-0.9,0.6-1.7,0.8-2.7H24.7
			c-0.1-0.8-0.2-1.6-0.2-2.3c0-8.9,7.4-13.4,15.1-18.2c5.7-3.5,11.5-7,14.4-12.5c-0.8-0.4-1.6-0.8-2.4-1.1
			C49,9.5,43.7,12.7,38.2,16.1"/>
	</g>
	<g>
		<defs>
			<rect id="SVGID_111_" x="4.7" y="2.3" width="290.6" height="68.3"/>
		</defs>
		<clipPath id="SVGID_112_">
			<use xlink:href="#SVGID_111_"  style="overflow:visible;"/>
		</clipPath>
		<path class="st56" d="M23.8,5.9c0.8-0.4,1.6-0.8,2.4-1.1c0.4,0.9,1,1.6,1.6,2.3h20.1c-0.9,1-1.9,1.8-3,2.7H30.5
			c2,1.7,4.4,3.4,6.9,4.9l0,0c-0.9,0.5-1.6,1-2.5,1.6C30.4,13.4,26.1,10.2,23.8,5.9 M43,56.7c-0.9,0.5-1.6,1-2.5,1.6l0,0
			c2.5,1.6,4.9,3.1,6.9,4.9H33c-1.1,0.9-2.1,1.7-3,2.7H50c0.6,0.7,1.1,1.5,1.6,2.3c0.9-0.3,1.6-0.7,2.4-1.1
			C51.7,62.7,47.5,59.6,43,56.7"/>
	</g>
</g>
</svg>
